<?xml version="1.0" encoding="utf-8" ?>
<svg baseProfile="full" preserveAspectRatio="xMidYMid meet" version="1.1" viewBox="-1,-1,11,6" xmlns="http://www.w3.org/2000/svg" xmlns:ev="http://www.w3.org/2001/xml-events" xmlns:xlink="http://www.w3.org/1999/xlink"><defs /><rect height="0.9523809523809523" width="0.9523809523809523" x="-0.47619047619047616" y="-0.47619047619047616" /><rect height="0.9523809523809523" width="0.9523809523809523" x="-0.47619047619047616" y="0.5238095238095238" /><rect height="0.9523809523809523" width="0.9523809523809523" x="-0.47619047619047616" y="1.5238095238095237" /><rect height="0.9523809523809523" width="0.9523809523809523" x="-0.47619047619047616" y="2.5238095238095237" /><rect height="0.9523809523809523" width="0.9523809523809523" x="-0.47619047619047616" y="3.5238095238095237" /><rect height="0.9523809523809523" width="0.9523809523809523" x="0.5238095238095238" y="-0.47619047619047616" /><rect height="0.9523809523809523" width="0.9523809523809523" x="0.5238095238095238" y="0.5238095238095238" /><rect height="0.9523809523809523" width="0.9523809523809523" x="0.5238095238095238" y="1.5238095238095237" /><rect height="0.9523809523809523" width="0.9523809523809523" x="0.5238095238095238" y="2.5238095238095237" /><rect height="0.9523809523809523" width="0.9523809523809523" x="0.5238095238095238" y="3.5238095238095237" /><rect height="0.9523809523809523" width="0.9523809523809523" x="1.5238095238095237" y="-0.47619047619047616" /><rect height="0.9523809523809523" width="0.9523809523809523" x="1.5238095238095237" y="0.5238095238095238" /><rect height="0.9523809523809523" width="0.9523809523809523" x="1.5238095238095237" y="1.5238095238095237" /><rect height="0.9523809523809523" width="0.9523809523809523" x="1.5238095238095237" y="2.5238095238095237" /><rect height="0.9523809523809523" width="0.9523809523809523" x="1.5238095238095237" y="3.5238095238095237" /><rect height="0.9523809523809523" width="0.9523809523809523" x="2.5238095238095237" y="-0.47619047619047616" /><rect height="0.9523809523809523" width="0.9523809523809523" x="2.5238095238095237" y="0.5238095238095238" /><rect height="0.9523809523809523" width="0.9523809523809523" x="2.5238095238095237" y="1.5238095238095237" /><rect height="0.9523809523809523" width="0.9523809523809523" x="2.5238095238095237" y="2.5238095238095237" /><rect height="0.9523809523809523" width="0.9523809523809523" x="2.5238095238095237" y="3.5238095238095237" /><rect height="0.9523809523809523" width="0.9523809523809523" x="3.5238095238095237" y="-0.47619047619047616" /><rect height="0.9523809523809523" width="0.9523809523809523" x="3.5238095238095237" y="0.5238095238095238" /><rect height="0.9523809523809523" width="0.9523809523809523" x="3.5238095238095237" y="1.5238095238095237" /><rect height="0.9523809523809523" width="0.9523809523809523" x="3.5238095238095237" y="2.5238095238095237" /><rect height="0.9523809523809523" width="0.9523809523809523" x="3.5238095238095237" y="3.5238095238095237" /><rect height="0.9523809523809523" width="0.9523809523809523" x="4.523809523809524" y="-0.47619047619047616" /><rect height="0.9523809523809523" width="0.9523809523809523" x="4.523809523809524" y="0.5238095238095238" /><rect height="0.9523809523809523" width="0.9523809523809523" x="4.523809523809524" y="1.5238095238095237" /><rect height="0.9523809523809523" width="0.9523809523809523" x="4.523809523809524" y="2.5238095238095237" /><rect height="0.9523809523809523" width="0.9523809523809523" x="4.523809523809524" y="3.5238095238095237" /><rect height="0.9523809523809523" width="0.9523809523809523" x="5.523809523809524" y="-0.47619047619047616" /><rect height="0.9523809523809523" width="0.9523809523809523" x="5.523809523809524" y="0.5238095238095238" /><rect height="0.9523809523809523" width="0.9523809523809523" x="5.523809523809524" y="1.5238095238095237" /><rect height="0.9523809523809523" width="0.9523809523809523" x="5.523809523809524" y="2.5238095238095237" /><rect height="0.9523809523809523" width="0.9523809523809523" x="5.523809523809524" y="3.5238095238095237" /><rect height="0.9523809523809523" width="0.9523809523809523" x="6.523809523809524" y="-0.47619047619047616" /><rect height="0.9523809523809523" width="0.9523809523809523" x="6.523809523809524" y="0.5238095238095238" /><rect height="0.9523809523809523" width="0.9523809523809523" x="6.523809523809524" y="1.5238095238095237" /><rect height="0.9523809523809523" width="0.9523809523809523" x="6.523809523809524" y="2.5238095238095237" /><rect height="0.9523809523809523" width="0.9523809523809523" x="6.523809523809524" y="3.5238095238095237" /><rect height="0.9523809523809523" width="0.9523809523809523" x="7.523809523809524" y="-0.47619047619047616" /><rect height="0.9523809523809523" width="0.9523809523809523" x="7.523809523809524" y="0.5238095238095238" /><rect height="0.9523809523809523" width="0.9523809523809523" x="7.523809523809524" y="1.5238095238095237" /><rect height="0.9523809523809523" width="0.9523809523809523" x="7.523809523809524" y="2.5238095238095237" /><rect height="0.9523809523809523" width="0.9523809523809523" x="7.523809523809524" y="3.5238095238095237" /><rect height="0.9523809523809523" width="0.9523809523809523" x="8.523809523809524" y="-0.47619047619047616" /><rect height="0.9523809523809523" width="0.9523809523809523" x="8.523809523809524" y="0.5238095238095238" /><rect height="0.9523809523809523" width="0.9523809523809523" x="8.523809523809524" y="1.5238095238095237" /><rect height="0.9523809523809523" width="0.9523809523809523" x="8.523809523809524" y="2.5238095238095237" /><rect height="0.9523809523809523" width="0.9523809523809523" x="8.523809523809524" y="3.5238095238095237" /></svg>