<?xml version="1.0" encoding="utf-8" ?>
<svg baseProfile="full" preserveAspectRatio="xMidYMid meet" version="1.1" viewBox="-1,-1,11,18" xmlns="http://www.w3.org/2000/svg" xmlns:ev="http://www.w3.org/2001/xml-events" xmlns:xlink="http://www.w3.org/1999/xlink"><defs /><g transform="translate(0,0)"><circle cx="0" cy="0" r="0.032700260523349726" /><circle cx="0" cy="1" r="0.3076409189333256" /><circle cx="0" cy="2" r="0.13472934440255166" /><circle cx="0" cy="3" r="0.2409139686295953" /><circle cx="0" cy="4" r="0.2014920272563595" /><circle cx="1" cy="0" r="0.13263036100022468" /><circle cx="1" cy="1" r="0.17886435507574805" /><circle cx="1" cy="2" r="0.23549447661216474" /><circle cx="1" cy="3" r="0.22177451440044957" /><circle cx="1" cy="4" r="0.3459707974179283" /><circle cx="2" cy="0" r="0.2909169263338019" /><circle cx="2" cy="1" r="0.10171465925619745" /><circle cx="2" cy="2" r="0.28300270221976653" /><circle cx="2" cy="3" r="0.27932364744448523" /><circle cx="2" cy="4" r="0.3168557334500027" /><circle cx="3" cy="0" r="0.4726212674879926" /><circle cx="3" cy="1" r="0.47619047619047616" /><circle cx="3" cy="2" r="0.42333987898988185" /><circle cx="3" cy="3" r="0.33689769547359893" /><circle cx="3" cy="4" r="0.22228712207421683" /><circle cx="4" cy="0" r="0.19699625615911387" /><circle cx="4" cy="1" r="0.37981800678239747" /><circle cx="4" cy="2" r="0.08998759225117318" /><circle cx="4" cy="3" r="0.14582554576135154" /><circle cx="4" cy="4" r="0.28700079039179044" /><circle cx="5" cy="0" r="0.1789402778533937" /><circle cx="5" cy="1" r="0.04256332572464213" /><circle cx="5" cy="2" r="0.23404929344171663" /><circle cx="5" cy="3" r="0.22994488604990873" /><circle cx="5" cy="4" r="0.3379302395508901" /><circle cx="6" cy="0" r="0.24447222810452698" /><circle cx="6" cy="1" r="0.20667068283295087" /><circle cx="6" cy="2" r="0.3674719509205616" /><circle cx="6" cy="3" r="0.4061725161861582" /><circle cx="6" cy="4" r="0.3097449367911104" /><circle cx="7" cy="0" r="0.389192785358735" /><circle cx="7" cy="1" r="0.370905200907671" /><circle cx="7" cy="2" r="0.2149974407751159" /><circle cx="7" cy="3" r="0.4397568803986118" /><circle cx="7" cy="4" r="0.21210024365634614" /><circle cx="8" cy="0" r="0.07730862630149611" /><circle cx="8" cy="1" r="0.16495659372333485" /><circle cx="8" cy="2" r="0.4174669996329361" /><circle cx="8" cy="3" r="0.3723950888073853" /><circle cx="8" cy="4" r="0.3150877928832868" /><circle cx="9" cy="0" r="0.16222012348508358" /><circle cx="9" cy="1" r="0.4297297724889676" /><circle cx="9" cy="2" r="0.2164911757183946" /><circle cx="9" cy="3" r="0.1299159311660579" /><circle cx="9" cy="4" r="0.2970433152132604" /></g><g transform="translate(0,6)"><circle cx="0" cy="0" r="0.1507030264830099" /><circle cx="0" cy="1" r="0.3296332777392028" /><circle cx="0" cy="2" r="0.29364642677549246" /><circle cx="0" cy="3" r="0.32456352269974675" /><circle cx="0" cy="4" r="0.33761343718639464" /><circle cx="1" cy="0" r="0.20005117023196373" /><circle cx="1" cy="1" r="0.27460050135232617" /><circle cx="1" cy="2" r="0.027988412135490436" /><circle cx="1" cy="3" r="0.36866572374490486" /><circle cx="1" cy="4" r="0.20696077285941158" /><circle cx="2" cy="0" r="0.22099794224072836" /><circle cx="2" cy="1" r="0.015643643188726117" /><circle cx="2" cy="2" r="0.02824332736438864" /><circle cx="2" cy="3" r="0.23935365762200914" /><circle cx="2" cy="4" r="0.3653084516575554" /><circle cx="3" cy="0" r="0.32414801688705264" /><circle cx="3" cy="1" r="0.2259404539964961" /><circle cx="3" cy="2" r="0.22328198930818471" /><circle cx="3" cy="3" r="0.13367411555635328" /><circle cx="3" cy="4" r="0.3849694376345208" /><circle cx="4" cy="0" r="0.10471291716066043" /><circle cx="4" cy="1" r="0.21297187487877345" /><circle cx="4" cy="2" r="0.269930489311915" /><circle cx="4" cy="3" r="0.29217974882748315" /><circle cx="4" cy="4" r="0.45384395440738745" /><circle cx="5" cy="0" r="0.23576359272497502" /><circle cx="5" cy="1" r="0.36025171091106295" /><circle cx="5" cy="2" r="0.47619047619047616" /><circle cx="5" cy="3" r="0.22247964077426396" /><circle cx="5" cy="4" r="0.11603329761318194" /><circle cx="6" cy="0" r="0.32548095968571816" /><circle cx="6" cy="1" r="0.16577698351905437" /><circle cx="6" cy="2" r="0.4184542234852787" /><circle cx="6" cy="3" r="0.31505489365072237" /><circle cx="6" cy="4" r="0.3266573371538255" /><circle cx="7" cy="0" r="0.4164973269223324" /><circle cx="7" cy="1" r="0.45379801242546935" /><circle cx="7" cy="2" r="0.29538902711998716" /><circle cx="7" cy="3" r="0.322975523631577" /><circle cx="7" cy="4" r="0.2783713717570848" /><circle cx="8" cy="0" r="0.4750949291871061" /><circle cx="8" cy="1" r="0.06459266800638766" /><circle cx="8" cy="2" r="0.10937448499850325" /><circle cx="8" cy="3" r="0.13637415951818654" /><circle cx="8" cy="4" r="0.15400002909593755" /><circle cx="9" cy="0" r="0.2373143887561473" /><circle cx="9" cy="1" r="0.21415250620407503" /><circle cx="9" cy="2" r="0.4285301255805933" /><circle cx="9" cy="3" r="0.4319976386369863" /><circle cx="9" cy="4" r="0.35382816153924823" /></g><g transform="translate(0,12)"><circle cx="0" cy="0" r="0.3482119799419775" /><circle cx="0" cy="1" r="0.2890044034139218" /><circle cx="0" cy="2" r="0.06243185309157775" /><circle cx="0" cy="3" r="0.046476796414855255" /><circle cx="0" cy="4" r="0.1739067586671997" /><circle cx="1" cy="0" r="0.2456583247421301" /><circle cx="1" cy="1" r="0.12037803878603547" /><circle cx="1" cy="2" r="0.26760209966528714" /><circle cx="1" cy="3" r="0.3015706801442946" /><circle cx="1" cy="4" r="0.37076535433913616" /><circle cx="2" cy="0" r="0.2617058649088659" /><circle cx="2" cy="1" r="0.27277306805994894" /><circle cx="2" cy="2" r="0.43788928028806284" /><circle cx="2" cy="3" r="0.17703679890557056" /><circle cx="2" cy="4" r="0.27574784319224227" /><circle cx="3" cy="0" r="0.17018462909340082" /><circle cx="3" cy="1" r="0.38631139011135474" /><circle cx="3" cy="2" r="0.19769624583240897" /><circle cx="3" cy="3" r="0.03388997285641498" /><circle cx="3" cy="4" r="0.04227478599884088" /><circle cx="4" cy="0" r="0.13990734590916593" /><circle cx="4" cy="1" r="0.45327902267460946" /><circle cx="4" cy="2" r="0.47619047619047616" /><circle cx="4" cy="3" r="0.17360598211078898" /><circle cx="4" cy="4" r="0.038159315980127166" /><circle cx="5" cy="0" r="0.2652243143079824" /><circle cx="5" cy="1" r="0.28995263503820556" /><circle cx="5" cy="2" r="0.020663845207469646" /><circle cx="5" cy="3" r="0.1926476024205017" /><circle cx="5" cy="4" r="0.31003291383104603" /><circle cx="6" cy="0" r="0.16559446477193163" /><circle cx="6" cy="1" r="0.14561967832548056" /><circle cx="6" cy="2" r="0.2115058356312469" /><circle cx="6" cy="3" r="0.16623341556132543" /><circle cx="6" cy="4" r="0.13067222017483385" /><circle cx="7" cy="0" r="0.38330516835106115" /><circle cx="7" cy="1" r="0.46533463149461224" /><circle cx="7" cy="2" r="0.2076516100935703" /><circle cx="7" cy="3" r="0.24643793464945749" /><circle cx="7" cy="4" r="0.22811350254754031" /><circle cx="8" cy="0" r="0.08607560589967495" /><circle cx="8" cy="1" r="0.2851605049987087" /><circle cx="8" cy="2" r="0.3584828811531923" /><circle cx="8" cy="3" r="0.3833881320492973" /><circle cx="8" cy="4" r="0.16266490280098556" /><circle cx="9" cy="0" r="0.26001411227065135" /><circle cx="9" cy="1" r="0.26314832584575976" /><circle cx="9" cy="2" r="0.24144019354088675" /><circle cx="9" cy="3" r="0.3509351043481639" /><circle cx="9" cy="4" r="0.336332913903932" /></g></svg>